<?xml version="1.0" encoding="UTF-8"?>
<svg id="Layer_1" data-name="Layer 1" xmlns="http://www.w3.org/2000/svg" width="30" height="27" viewBox="0 0 30 27">
  <defs>
    <style>
      .cls-1 {
        fill: #fcfcfc;
      }

      .cls-2 {
        fill: #1d1d1d;
      }
    </style>
  </defs>
  <g id="frame">
    <polygon class="cls-2" points="28.29 5.13 27.48 2.33 23.41 .12 4.79 .36 1.43 3.38 1.48 9.26 1.65 22.93 3.4 25.02 6.65 27 24.57 26.88 28.41 24.44 28.47 9.55 28.29 5.13"/>
    <polygon class="cls-2" points="15.78 16.53 15.78 20.12 21 16.63 18.29 14.86 15.78 16.53"/>
    <polygon class="cls-2" points="13.96 16.54 11.33 14.78 8.72 16.61 13.96 20.12 13.96 16.54"/>
    <polygon class="cls-2" points="21.75 14.91 21.75 12.54 19.96 13.74 21.75 14.91"/>
    <polygon class="cls-2" points="14.65 12.45 12.95 13.64 14.88 14.93 16.63 13.75 14.65 12.45"/>
    <polygon class="cls-2" points="18.3 12.63 21.01 10.81 15.75 7.15 15.76 10.79 18.3 12.63"/>
    <polygon class="cls-2" points="13.89 10.71 13.89 7.15 8.7 10.79 11.29 12.53 13.89 10.71"/>
    <polygon class="cls-2" points="7.99 12.54 7.99 14.85 9.67 13.67 7.99 12.54"/>
  </g>
  <path class="cls-1" d="M23.95,4.56V22.45H6.05V4.56H23.95m.69-.69H5.36V23.15H24.64s0-19.28,0-19.28Z"/>
  <polygon class="cls-1" points="17.74 3.85 16.99 3.85 7.69 13.01 7.69 3.85 5.36 3.85 5.36 23.15 7.69 23.15 7.69 15.89 10.86 12.93 12.59 11.19 19.03 4.98 17.74 3.85"/>
  <path class="cls-1" d="M24.64,20.9v2.12h-.29c-2.45,0-4.37-.58-5.75-1.75s-2.07-3.02-2.07-5.56V3.86h2.53V15.71c0,1.71,.45,3,1.36,3.88s2.21,1.32,3.92,1.32h.29Z"/>
</svg>